<?xml version="1.0" standalone="no"?><!DOCTYPE svg PUBLIC "-//W3C//DTD SVG 1.1//EN" "http://www.w3.org/Graphics/SVG/1.1/DTD/svg11.dtd"><svg t="1600789505397" class="icon" viewBox="0 0 1024 1024" version="1.1" xmlns="http://www.w3.org/2000/svg" p-id="4864" xmlns:xlink="http://www.w3.org/1999/xlink" width="200" height="200"><defs><style type="text/css"></style></defs><path d="M510.976 951.808c-114.688 0-225.792-45.056-309.76-129.024-82.944-82.944-128.512-193.536-128.512-310.784s45.568-227.84 128.512-310.784S394.752 72.192 512 72.192c0 0 0 0 0 0 117.248 0 227.84 45.568 310.784 128.512S951.296 394.24 951.296 512c0 117.248-45.568 227.84-128.512 310.784-11.264 11.264-30.208 11.264-41.472 0-11.264-11.264-11.264-30.208 0-41.472 148.48-148.48 148.48-390.144 0-538.624-72.192-72.192-167.424-111.616-269.312-111.616-101.888 0-197.632 39.424-269.312 111.616-148.48 148.48-148.48 390.144 0 538.624 102.4 102.4 251.904 137.728 389.632 92.16 15.36-5.12 31.744 3.072 36.864 18.432 5.12 15.36-3.072 31.744-18.432 36.864C604.672 944.128 557.568 951.808 510.976 951.808z" p-id="4865" fill="#6A6A6A"></path><path d="M481.28 748.032 481.28 748.032c-7.68 0-15.36-3.072-20.48-8.704L284.16 563.2c-11.264-11.264-11.264-30.208 0-41.472L522.24 284.16c11.264-11.264 30.208-11.264 41.472 0l176.128 176.128c11.264 11.264 11.264 30.208 0 41.472L501.76 739.328C496.64 744.96 488.96 748.032 481.28 748.032zM346.624 542.72 481.28 677.376 677.376 481.28 542.72 346.624 346.624 542.72z" p-id="4866" fill="#6A6A6A"></path><path d="M798.208 835.072c-7.68 0-14.848-3.072-20.48-8.704L575.488 624.64c-11.264-11.264-11.264-30.208 0-41.472 11.264-11.264 30.208-11.264 41.472 0l202.24 202.24c11.264 11.264 11.264 30.208 0 41.472C813.056 832.512 805.376 835.072 798.208 835.072z" p-id="4867" fill="#6A6A6A"></path></svg>