<?xml version="1.0" standalone="no"?><!DOCTYPE svg PUBLIC "-//W3C//DTD SVG 1.1//EN" "http://www.w3.org/Graphics/SVG/1.1/DTD/svg11.dtd"><svg t="1600788206056" class="icon" viewBox="0 0 1024 1024" version="1.1" xmlns="http://www.w3.org/2000/svg" p-id="1134" xmlns:xlink="http://www.w3.org/1999/xlink" width="200" height="200"><defs><style type="text/css"></style></defs><path d="M299.15648 372.984832h364.060672L544.142336 227.13344c-10.206208-12.502016-8.3456-30.910464 4.156416-41.117696 12.502016-10.206208 30.910464-8.3456 41.117696 4.156416l158.019584 193.554432c15.582208 19.086336 2.00192 47.704064-22.636544 47.704064H299.15648c-16.139264 0-29.222912-13.083648-29.222912-29.222912 0-16.139264 13.083648-29.222912 29.222912-29.222912z m425.643008 279.22944H360.738816l119.073792 145.851392c10.207232 12.502016 8.3456 30.911488-4.155392 41.117696-12.50304 10.207232-30.911488 8.3456-41.117696-4.155392L276.518912 641.472512c-15.581184-19.086336-2.00192-47.704064 22.637568-47.704064h425.643008c16.139264 0 29.222912 13.083648 29.222912 29.222912 0 16.139264-13.083648 29.222912-29.222912 29.222912z m240.754688-140.269568c0-250.461184-203.102208-453.49888-453.609472-453.49888-250.484736 0-453.49888 203.014144-453.49888 453.49888 0 250.507264 203.037696 453.609472 453.49888 453.609472 250.484736 0 453.609472-203.124736 453.609472-453.609472z m58.445824 0C1024 794.707968 794.707968 1024 511.944704 1024 229.199872 1024 0 794.7264 0 511.944704 0 229.18144 229.18144 0 511.944704 0 794.7264 0 1024 229.199872 1024 511.944704z"  fill="#6A6A6A" p-id="1135"></path></svg>