<?xml version="1.0" encoding="UTF-8"?>
<svg width="243px" height="243px" viewBox="0 0 243 243" version="1.1" xmlns="http://www.w3.org/2000/svg" xmlns:xlink="http://www.w3.org/1999/xlink">
    <title>编组 2</title>
    <defs>
        <linearGradient x1="50%" y1="0%" x2="50%" y2="100%" id="linearGradient-1">
            <stop stop-color="#FDB26C" offset="0%"></stop>
            <stop stop-color="#F06740" offset="100%"></stop>
        </linearGradient>
    </defs>
    <g id="页面-1" stroke="none" stroke-width="1" fill="none" fill-rule="evenodd">
        <g id="画板备份-2" transform="translate(-839.000000, -419.000000)">
            <g id="编组" transform="translate(839.000000, 419.000000)">
                <circle id="椭圆形" fill="url(#linearGradient-1)" cx="121.5" cy="121.5" r="121.5"></circle>
                <path d="M121.5,16 C179.766041,16 227,63.2339589 227,121.5 C227,179.766041 179.766041,227 121.5,227 C63.2339589,227 16,179.766041 16,121.5 C16,63.2339589 63.2339589,16 121.5,16 Z M121.5,25 C68.2045216,25 25,68.2045216 25,121.5 C25,174.795478 68.2045216,218 121.5,218 C174.795478,218 218,174.795478 218,121.5 C218,68.2045216 174.795478,25 121.5,25 Z" id="椭圆形" fill="#AC431F" fill-rule="nonzero"></path>
                <path d="M126.32,78 C146.96,78 157.4,86.76 157.4,104.28 C157.4,113.031147 154.830591,119.626353 149.691772,124.050966 C170.60286,126.24703 185,130.853233 185,136.18 C185,141.622766 169.96899,146.313244 148.316811,148.449324 L146.522443,148.619103 L144.699293,148.777156 L142.848399,148.923259 L140.970799,149.057192 C134.983874,149.461806 128.610848,149.68 122,149.68 C116.050381,149.68 110.29339,149.503271 104.837112,149.172976 L104.84,163.68 L90.8,163.68 L90.7977504,147.910617 C71.8029287,145.58562 59,141.203198 59,136.18 C59,131.156714 71.8033777,126.774226 90.7987495,124.449261 L90.8,78 L126.32,78 Z M144.147233,127.550814 L143.757008,127.725132 C139.209344,129.713227 133.524764,130.738732 126.703268,130.797336 L126.08,130.8 L104.84,130.8 L104.838503,141.040417 L103.580503,140.960029 L103.580503,140.960029 L102.33242,140.874038 L100.473125,140.734121 L99.5526121,140.659486 L99.5526121,140.659486 L98.6383991,140.581759 L96.8295013,140.417106 C95.7072735,140.310389 94.6009161,140.196561 93.5118112,140.075788 L92.4285083,139.952707 L90.7990426,139.756 L90.799,128.478 L90.7199136,128.48879 C86.205086,129.054898 82.0261324,129.744752 78.2903891,130.545268 C77.9022092,130.62845 77.5198853,130.712627 77.1435371,130.797752 L76.0325393,131.055923 L74.9581139,131.319495 C74.2541808,131.496947 73.575108,131.677808 72.9218531,131.861698 L71.9614538,132.139757 C69.4526633,132.887047 67.3646192,133.679736 65.7586026,134.493389 C64.619007,135.07074 63.7890395,135.626564 63.2905065,136.104066 L63.214,136.18 L63.2905065,136.255934 C63.7474951,136.693644 64.4829807,137.197166 65.4801669,137.722754 L65.7586026,137.866611 C67.3646192,138.680264 69.4526633,139.472953 71.9614538,140.220243 L72.9218531,140.498302 C73.575108,140.682192 74.2541808,140.863053 74.9581139,141.040505 L76.0325393,141.304077 L77.1435371,141.562248 C77.5198853,141.647373 77.9022092,141.73155 78.2903891,141.814732 C82.0261324,142.615248 86.205086,143.305102 90.7199136,143.87121 L90.798,143.881 L90.7980418,143.785686 C91.9878968,143.931324 93.2020478,144.068889 94.4388699,144.198033 L95.6831889,144.324357 L97.4775569,144.494136 L99.3007067,144.652189 L101.151601,144.798293 L103.029201,144.932225 C103.628353,144.972718 104.231373,145.011343 104.83811,145.04807 L104.837501,145.165322 C104.946454,145.172015 105.055515,145.178645 105.164681,145.185211 L107.079899,145.293347 C110.289084,145.462797 113.5823,145.578159 116.933342,145.63624 L118.950697,145.664189 L120.980673,145.678237 C121.319984,145.679411 121.659768,145.68 122,145.68 L123.019327,145.678237 L125.049303,145.664189 L127.066658,145.63624 C130.4177,145.578159 133.710916,145.462797 136.920101,145.293347 L138.835319,145.185211 C139.787676,145.127924 140.731999,145.065826 141.66758,144.999005 L143.526875,144.859087 C144.142615,144.810366 144.75426,144.75957 145.361601,144.706726 L147.170499,144.542073 C148.666802,144.399784 150.134892,144.244851 151.571492,144.077674 L153.280086,143.87121 C157.794914,143.305102 161.973868,142.615248 165.709611,141.814732 C166.097791,141.73155 166.480115,141.647373 166.856463,141.562248 L167.967461,141.304077 L169.041886,141.040505 C169.745819,140.863053 170.424892,140.682192 171.078147,140.498302 L172.038546,140.220243 C174.547337,139.472953 176.635381,138.680264 178.241397,137.866611 C179.380993,137.28926 180.21096,136.733436 180.709494,136.255934 L180.785,136.18 L180.709494,136.104066 C180.252505,135.666356 179.517019,135.162834 178.519833,134.637246 L178.241397,134.493389 C176.635381,133.679736 174.547337,132.887047 172.038546,132.139757 L171.078147,131.861698 C170.424892,131.677808 169.745819,131.496947 169.041886,131.319495 L167.967461,131.055923 L166.856463,130.797752 C166.480115,130.712627 166.097791,130.62845 165.709611,130.545268 C161.973868,129.744752 157.794914,129.054898 153.280086,128.48879 L151.571492,128.282326 C150.134892,128.115149 148.666802,127.960216 147.170499,127.817927 L145.361601,127.653274 C144.958686,127.618217 144.553876,127.584061 144.147233,127.550814 Z M125.24,90 L104.84,90 L104.84,118.8 L125.24,118.8 C131.48,118.8 136.04,117.6 138.92,115.44 C141.8,113.16 143.24,109.44 143.24,104.28 C143.24,99.12 141.68,95.52 138.8,93.36 C135.92,91.08 131.36,90 125.24,90 Z" id="形状结合" fill="#AC431F" fill-rule="nonzero"></path>
            </g>
        </g>
    </g>
</svg>