<?xml version="1.0" standalone="no"?><!DOCTYPE svg PUBLIC "-//W3C//DTD SVG 1.1//EN" "http://www.w3.org/Graphics/SVG/1.1/DTD/svg11.dtd"><svg t="1600851319945" class="icon" viewBox="0 0 1024 1024" version="1.1" xmlns="http://www.w3.org/2000/svg" p-id="4270" xmlns:xlink="http://www.w3.org/1999/xlink" width="200" height="200"><defs><style type="text/css"></style></defs><path d="M469.333333 384h170.666667a42.666667 42.666667 0 0 0 0-85.333333h-85.333333V256a42.666667 42.666667 0 0 0-85.333334 0v42.666667a128 128 0 0 0 0 256h85.333334a42.666667 42.666667 0 0 1 0 85.333333H384a42.666667 42.666667 0 0 0 0 85.333333h85.333333v42.666667a42.666667 42.666667 0 0 0 85.333334 0v-42.666667a128 128 0 0 0 0-256h-85.333334a42.666667 42.666667 0 0 1 0-85.333333z m42.666667-341.333333a469.333333 469.333333 0 1 0 469.333333 469.333333A469.333333 469.333333 0 0 0 512 42.666667z m0 853.333333a384 384 0 1 1 384-384 384 384 0 0 1-384 384z" p-id="4271" fill="#6A6A6A"></path></svg>